<svg fill="#000000" xmlns="http://www.w3.org/2000/svg"  viewBox="0 0 50 50" width="50px" height="50px"><path fill="none" stroke="#000000" stroke-miterlimit="10" stroke-width="2" d="M18.376,41.917C11.731,39.435,7,33.029,7,25.519c0-9.665,7.835-17.5,17.5-17.5S42,15.854,42,25.519c0,1.236-0.128,2.442-0.372,3.606"/><path d="M44.769,21.637L40.878,19.4C41.591,21.307,42,23.363,42,25.519c0,0.751-0.062,1.486-0.154,2.211L17.614,41.599C11.376,38.924,7,32.737,7,25.519c0-8.627,6.249-15.779,14.464-17.219L10.015,1.747C9.237,1.299,8.492,1,7.384,1C5.36,1,4,2.461,4,4.635v40.729C4,47.539,5.36,49,7.384,49c1.108,0,1.854-0.299,2.628-0.746L44.77,28.361C45.321,28.043,47,27.078,47,25C47,22.92,45.321,21.955,44.769,21.637z"/><path d="M24.5,14C18.149,14,13,19.149,13,25.5C13,31.851,18.149,37,24.5,37S36,31.851,36,25.5C36,19.149,30.851,14,24.5,14z M29,21.875h-2.5v6.5c0,1.461-1.389,2.625-2.875,2.625C22.168,31,21,29.826,21,28.336c0-1.461,1.171-2.663,2.657-2.663c0.486,0,0.943,0.143,1.343,0.372V19h4V21.875z"/></svg>